<svg xmlns="http://www.w3.org/2000/svg" viewBox="0 0 1024 1024" width="1024" height="1024">
  <!-- Background gradient -->
  <defs>
    <linearGradient id="bg-gradient" x1="0%" y1="0%" x2="100%" y2="100%">
      <stop offset="0%" style="stop-color:#ff6600"/>
      <stop offset="100%" style="stop-color:#ff9933"/>
    </linearGradient>
    <!-- Drop shadow for text -->
    <filter id="shadow" x="-10%" y="-10%" width="120%" height="120%">
      <feDropShadow dx="5" dy="5" stdDeviation="8" flood-color="rgba(0,0,0,0.7)"/>
    </filter>
  </defs>
  
  <!-- White background rectangle to ensure no transparency -->
  <rect x="0" y="0" width="1024" height="1024" fill="white"/>
  
  <!-- Rounded rectangle background -->
  <rect x="64" y="64" width="896" height="896" rx="192" ry="192" fill="url(#bg-gradient)"/>
  
  <!-- Cards - positioned higher with thinner borders -->
  <!-- Card 1 with red rectangle -->
  <g transform="translate(192, 282) rotate(-15)">
    <rect x="0" y="0" width="256" height="384" rx="26" ry="26" fill="white" stroke="black" stroke-width="8"/>
    <rect x="51" y="154" width="154" height="77" rx="13" ry="13" fill="none" stroke="#ff5555" stroke-width="8"/>
  </g>
  
  <!-- Card 2 with green squares -->
  <g transform="translate(640, 256) rotate(15)">
    <rect x="0" y="0" width="256" height="384" rx="26" ry="26" fill="white" stroke="black" stroke-width="8"/>
    <rect x="154" y="128" width="77" height="77" fill="#55aa55"/>
    <rect x="128" y="230" width="77" height="77" fill="#55aa55"/>
  </g>
  
  <!-- Card 3 with purple ovals -->
  <g transform="translate(422, 359)">
    <rect x="0" y="0" width="256" height="384" rx="26" ry="26" fill="white" stroke="black" stroke-width="8"/>
    <ellipse cx="128" cy="102" rx="77" ry="38" fill="#aa55aa"/>
    <ellipse cx="128" cy="192" rx="77" ry="38" fill="#aa55aa"/>
    <ellipse cx="128" cy="282" rx="77" ry="38" fill="#aa55aa"/>
  </g>
  
  <!-- SetX Text at the bottom -->
  <g>
    <!-- Shadow layer -->
    <text x="512" y="896" font-family="Arial, sans-serif" font-size="180" font-weight="bold" text-anchor="middle" fill="white" filter="url(#shadow)">SetX</text>
    <!-- Main text -->
    <text x="512" y="896" font-family="Arial, sans-serif" font-size="180" font-weight="bold" text-anchor="middle" fill="white" stroke="black" stroke-width="5" stroke-linejoin="round">SetX</text>
  </g>
</svg>
