<svg xmlns="http://www.w3.org/2000/svg" viewBox="0 0 800 800">
  <!-- Background gradient -->
  <defs>
    <linearGradient id="bg-gradient" x1="0%" y1="0%" x2="100%" y2="100%">
      <stop offset="0%" style="stop-color:#ff6600"/>
      <stop offset="100%" style="stop-color:#ff9933"/>
    </linearGradient>
  </defs>
  
  <!-- Rounded rectangle background -->
  <rect x="50" y="50" width="700" height="700" rx="150" ry="150" fill="url(#bg-gradient)" />
  
  <!-- Cards -->
  <!-- Card 1 with red rectangle -->
  <g transform="translate(150, 300) rotate(-15)">
    <rect x="0" y="0" width="200" height="300" rx="20" ry="20" fill="white" stroke="black" stroke-width="15"/>
    <rect x="40" y="120" width="120" height="60" rx="10" ry="10" fill="none" stroke="#ff5555" stroke-width="10"/>
  </g>
  
  <!-- Card 2 with green squares -->
  <g transform="translate(500, 280) rotate(15)">
    <rect x="0" y="0" width="200" height="300" rx="20" ry="20" fill="white" stroke="black" stroke-width="15"/>
    <rect x="120" y="100" width="60" height="60" fill="#55aa55"/>
    <rect x="100" y="180" width="60" height="60" fill="#55aa55"/>
  </g>
  
  <!-- Card 3 with purple ovals -->
  <g transform="translate(330, 380)">
    <rect x="0" y="0" width="200" height="300" rx="20" ry="20" fill="white" stroke="black" stroke-width="15"/>
    <ellipse cx="100" cy="80" rx="60" ry="30" fill="#aa55aa"/>
    <ellipse cx="100" cy="150" rx="60" ry="30" fill="#aa55aa"/>
    <ellipse cx="100" cy="220" rx="60" ry="30" fill="#aa55aa"/>
  </g>
  
  <!-- Text "SetX" with shadow -->
  <g>
    <text x="400" y="180" font-family="Arial, sans-serif" font-size="120" font-weight="bold" text-anchor="middle" fill="white" stroke="black" stroke-width="8" stroke-linejoin="round">SetX</text>
  </g>
</svg>
